<?xml version="1.0" encoding="UTF-8" standalone="no"?>
<!DOCTYPE svg PUBLIC "-//W3C//DTD SVG 1.1//EN" "http://www.w3.org/Graphics/SVG/1.1/DTD/svg11.dtd">
<svg width="100%" height="100%" viewBox="0 0 292 81" version="1.1" xmlns="http://www.w3.org/2000/svg" xmlns:xlink="http://www.w3.org/1999/xlink" xml:space="preserve" xmlns:serif="http://www.serif.com/" style="fill-rule:evenodd;clip-rule:evenodd;stroke-linejoin:round;stroke-miterlimit:2;">
    <g transform="matrix(1.333333,0,0,1.333333,-105.653645,-214.510416)">
        <clipPath id="_clip1">
            <path d="M133.078,160.883C122.969,160.883 114.773,168.559 114.773,178.023C114.773,187.492 122.969,195.168 133.078,195.168C143.188,195.168 151.383,187.492 151.383,178.023C151.383,168.559 143.188,160.883 133.078,160.883Z"/>
        </clipPath>
        <g clip-path="url(#_clip1)">
            <g transform="matrix(1,0,0,1,114,160)">
                <g>
                    <g>
                        <g>
                            <clipPath id="_clip2">
                                <path d="M19.078,0.883C8.969,0.883 0.773,8.559 0.773,18.023C0.773,27.492 8.969,35.168 19.078,35.168C29.188,35.168 37.383,27.492 37.383,18.023C37.383,8.559 29.188,0.883 19.078,0.883Z"/>
                            </clipPath>
                            <g clip-path="url(#_clip2)">
                                <rect x="0.773" y="0.883" width="36.559" height="34.285" style="fill:rgb(87,70,217);fill-rule:nonzero;"/>
                            </g>
                        </g>
                    </g>
                </g>
            </g>
        </g>
    </g>
    <g transform="matrix(1.333333,0,0,1.333333,-105.653645,-214.510416)">
        <g transform="matrix(1,0,0,1,75.333984,194.450013)">
            <g>
                <path d="M34.078,-32.906L34.078,0L27.828,0L11.422,-19.969L11.422,0L3.906,0L3.906,-32.906L10.203,-32.906L26.562,-12.922L26.562,-32.906L34.078,-32.906Z" style="fill:rgb(231,227,218);fill-rule:nonzero;"/>
            </g>
        </g>
    </g>
    <g transform="matrix(1.333333,0,0,1.333333,-105.653645,-214.510416)">
        <g transform="matrix(1,0,0,1,113.314451,194.450013)">
            <g>
                <path d="M19.828,0.562C16.422,0.562 13.344,-0.172 10.594,-1.641C7.852,-3.117 5.707,-5.148 4.156,-7.734C2.602,-10.316 1.828,-13.223 1.828,-16.453C1.828,-19.68 2.602,-22.586 4.156,-25.172C5.707,-27.754 7.852,-29.781 10.594,-31.25C13.344,-32.727 16.422,-33.469 19.828,-33.469C23.242,-33.469 26.316,-32.727 29.047,-31.25C31.773,-29.781 33.922,-27.754 35.484,-25.172C37.047,-22.586 37.828,-19.68 37.828,-16.453C37.828,-13.223 37.047,-10.316 35.484,-7.734C33.922,-5.148 31.773,-3.117 29.047,-1.641C26.316,-0.172 23.242,0.562 19.828,0.562ZM19.828,-5.922C21.773,-5.922 23.531,-6.363 25.094,-7.25C26.664,-8.145 27.895,-9.391 28.781,-10.984C29.676,-12.586 30.125,-14.41 30.125,-16.453C30.125,-18.484 29.676,-20.297 28.781,-21.891C27.895,-23.492 26.664,-24.742 25.094,-25.641C23.531,-26.535 21.773,-26.984 19.828,-26.984C17.891,-26.984 16.133,-26.535 14.562,-25.641C13,-24.742 11.77,-23.492 10.875,-21.891C9.988,-20.297 9.547,-18.484 9.547,-16.453C9.547,-14.41 9.988,-12.586 10.875,-10.984C11.77,-9.391 13,-8.145 14.562,-7.25C16.133,-6.363 17.891,-5.922 19.828,-5.922Z" style="fill:rgb(87,70,217);fill-rule:nonzero;"/>
            </g>
        </g>
    </g>
    <g transform="matrix(1.333333,0,0,1.333333,-105.653645,-214.510416)">
        <g transform="matrix(1,0,0,1,151.904292,194.450013)">
            <g>
                <path d="M35.531,-32.906L21.297,0L13.766,0L-0.422,-32.906L7.797,-32.906L17.812,-9.406L27.969,-32.906L35.531,-32.906Z" style="fill:rgb(231,227,218);fill-rule:nonzero;"/>
            </g>
        </g>
    </g>
    <g transform="matrix(1.333333,0,0,1.333333,-105.653645,-214.510416)">
        <g transform="matrix(1,0,0,1,185.174611,194.450013)">
            <g>
                <path d="M25.562,-7.047L10.297,-7.047L7.375,0L-0.422,0L14.234,-32.906L21.766,-32.906L36.469,0L28.484,0L25.562,-7.047ZM23.172,-12.828L17.953,-25.422L12.734,-12.828L23.172,-12.828Z" style="fill:rgb(231,227,218);fill-rule:nonzero;"/>
            </g>
        </g>
    </g>
    <g transform="matrix(1.333333,0,0,1.333333,-105.653645,-214.510416)">
        <g transform="matrix(1,0,0,1,221.17058,194.450013)">
            <g>
                <path d="M3.906,-32.906L18.844,-32.906C22.414,-32.906 25.57,-32.223 28.312,-30.859C31.062,-29.492 33.191,-27.57 34.703,-25.094C36.223,-22.625 36.984,-19.742 36.984,-16.453C36.984,-13.16 36.223,-10.273 34.703,-7.797C33.191,-5.328 31.062,-3.41 28.312,-2.047C25.57,-0.68 22.414,0 18.844,0L3.906,0L3.906,-32.906ZM18.469,-6.25C21.758,-6.25 24.383,-7.164 26.344,-9C28.301,-10.832 29.281,-13.316 29.281,-16.453C29.281,-19.586 28.301,-22.07 26.344,-23.906C24.383,-25.738 21.758,-26.656 18.469,-26.656L11.516,-26.656L11.516,-6.25L18.469,-6.25Z" style="fill:rgb(231,227,218);fill-rule:nonzero;"/>
            </g>
        </g>
    </g>
    <g transform="matrix(1.333333,0,0,1.333333,-105.653645,-214.510416)">
        <g transform="matrix(1,0,0,1,259.986076,194.450013)">
            <g>
                <path d="M19.828,0.562C16.422,0.562 13.344,-0.172 10.594,-1.641C7.852,-3.117 5.707,-5.148 4.156,-7.734C2.602,-10.316 1.828,-13.223 1.828,-16.453C1.828,-19.68 2.602,-22.586 4.156,-25.172C5.707,-27.754 7.852,-29.781 10.594,-31.25C13.344,-32.727 16.422,-33.469 19.828,-33.469C23.242,-33.469 26.316,-32.727 29.047,-31.25C31.773,-29.781 33.922,-27.754 35.484,-25.172C37.047,-22.586 37.828,-19.68 37.828,-16.453C37.828,-13.223 37.047,-10.316 35.484,-7.734C33.922,-5.148 31.773,-3.117 29.047,-1.641C26.316,-0.172 23.242,0.562 19.828,0.562ZM19.828,-5.922C21.773,-5.922 23.531,-6.363 25.094,-7.25C26.664,-8.145 27.895,-9.391 28.781,-10.984C29.676,-12.586 30.125,-14.41 30.125,-16.453C30.125,-18.484 29.676,-20.297 28.781,-21.891C27.895,-23.492 26.664,-24.742 25.094,-25.641C23.531,-26.535 21.773,-26.984 19.828,-26.984C17.891,-26.984 16.133,-26.535 14.562,-25.641C13,-24.742 11.77,-23.492 10.875,-21.891C9.988,-20.297 9.547,-18.484 9.547,-16.453C9.547,-14.41 9.988,-12.586 10.875,-10.984C11.77,-9.391 13,-8.145 14.562,-7.25C16.133,-6.363 17.891,-5.922 19.828,-5.922Z" style="fill:rgb(231,227,218);fill-rule:nonzero;"/>
            </g>
        </g>
    </g>
    <g transform="matrix(1.333333,0,0,1.333333,-105.653645,-214.510416)">
        <g transform="matrix(1,0,0,1,141.546045,221.050063)">
            <g>
                <path d="M5.281,0.172C4.363,0.172 3.477,0.039 2.625,-0.219C1.77,-0.477 1.094,-0.828 0.594,-1.266L1.359,-2.969C1.848,-2.582 2.445,-2.27 3.156,-2.031C3.863,-1.789 4.57,-1.672 5.281,-1.672C6.164,-1.672 6.828,-1.812 7.266,-2.094C7.703,-2.375 7.922,-2.75 7.922,-3.219C7.922,-3.551 7.797,-3.828 7.547,-4.047C7.305,-4.273 7,-4.453 6.625,-4.578C6.25,-4.703 5.738,-4.844 5.094,-5C4.188,-5.219 3.453,-5.43 2.891,-5.641C2.336,-5.859 1.859,-6.195 1.453,-6.656C1.047,-7.113 0.844,-7.734 0.844,-8.516C0.844,-9.172 1.02,-9.77 1.375,-10.312C1.738,-10.852 2.281,-11.281 3,-11.594C3.719,-11.906 4.598,-12.062 5.641,-12.062C6.367,-12.062 7.082,-11.973 7.781,-11.797C8.488,-11.617 9.098,-11.359 9.609,-11.016L8.906,-9.297C8.383,-9.609 7.836,-9.844 7.266,-10C6.703,-10.156 6.156,-10.234 5.625,-10.234C4.75,-10.234 4.098,-10.082 3.672,-9.781C3.254,-9.488 3.047,-9.102 3.047,-8.625C3.047,-8.281 3.164,-8 3.406,-7.781C3.656,-7.57 3.961,-7.406 4.328,-7.281C4.703,-7.156 5.211,-7.008 5.859,-6.844C6.742,-6.645 7.469,-6.43 8.031,-6.203C8.602,-5.984 9.086,-5.645 9.484,-5.188C9.891,-4.738 10.094,-4.129 10.094,-3.359C10.094,-2.703 9.914,-2.109 9.562,-1.578C9.207,-1.047 8.664,-0.617 7.938,-0.297C7.207,0.016 6.32,0.172 5.281,0.172Z" style="fill:rgb(177,166,255);fill-rule:nonzero;"/>
            </g>
        </g>
    </g>
    <g transform="matrix(1.333333,0,0,1.333333,-105.653645,-214.510416)">
        <g transform="matrix(1,0,0,1,156.994149,221.050063)">
            <g>
                <path d="M4.016,-10.031L0.062,-10.031L0.062,-11.906L10.172,-11.906L10.172,-10.031L6.219,-10.031L6.219,0L4.016,0L4.016,-10.031Z" style="fill:rgb(177,166,255);fill-rule:nonzero;"/>
            </g>
        </g>
    </g>
    <g transform="matrix(1.333333,0,0,1.333333,-105.653645,-214.510416)">
        <g transform="matrix(1,0,0,1,171.983471,221.050063)">
            <g>
                <path d="M6.719,0.172C5.07,0.172 3.789,-0.285 2.875,-1.203C1.957,-2.129 1.5,-3.457 1.5,-5.188L1.5,-11.906L3.703,-11.906L3.703,-5.266C3.703,-2.93 4.711,-1.766 6.734,-1.766C8.734,-1.766 9.734,-2.93 9.734,-5.266L9.734,-11.906L11.922,-11.906L11.922,-5.188C11.922,-3.457 11.461,-2.129 10.547,-1.203C9.641,-0.285 8.363,0.172 6.719,0.172Z" style="fill:rgb(177,166,255);fill-rule:nonzero;"/>
            </g>
        </g>
    </g>
    <g transform="matrix(1.333333,0,0,1.333333,-105.653645,-214.510416)">
        <g transform="matrix(1,0,0,1,190.150324,221.050063)">
            <g>
                <path d="M1.594,-11.906L6.797,-11.906C8.066,-11.906 9.191,-11.656 10.172,-11.156C11.16,-10.664 11.926,-9.969 12.469,-9.062C13.02,-8.164 13.297,-7.129 13.297,-5.953C13.297,-4.773 13.02,-3.734 12.469,-2.828C11.926,-1.93 11.16,-1.234 10.172,-0.734C9.191,-0.242 8.066,0 6.797,0L1.594,0L1.594,-11.906ZM6.703,-1.875C7.566,-1.875 8.332,-2.039 9,-2.375C9.664,-2.707 10.176,-3.18 10.531,-3.797C10.883,-4.41 11.062,-5.129 11.062,-5.953C11.062,-6.766 10.883,-7.477 10.531,-8.094C10.176,-8.719 9.664,-9.195 9,-9.531C8.332,-9.863 7.566,-10.031 6.703,-10.031L3.812,-10.031L3.812,-1.875L6.703,-1.875Z" style="fill:rgb(177,166,255);fill-rule:nonzero;"/>
            </g>
        </g>
    </g>
    <g transform="matrix(1.333333,0,0,1.333333,-105.653645,-214.510416)">
        <g transform="matrix(1,0,0,1,208.945882,221.050063)">
            <g>
                <rect x="1.594" y="-11.906" width="2.219" height="11.906" style="fill:rgb(177,166,255);fill-rule:nonzero;"/>
            </g>
        </g>
    </g>
    <g transform="matrix(1.333333,0,0,1.333333,-105.653645,-214.510416)">
        <g transform="matrix(1,0,0,1,219.126419,221.050063)">
            <g>
                <path d="M7.156,0.172C5.945,0.172 4.852,-0.086 3.875,-0.609C2.895,-1.141 2.129,-1.875 1.578,-2.812C1.023,-3.75 0.75,-4.797 0.75,-5.953C0.75,-7.109 1.023,-8.148 1.578,-9.078C2.129,-10.016 2.895,-10.742 3.875,-11.266C4.852,-11.797 5.945,-12.062 7.156,-12.062C8.363,-12.062 9.457,-11.797 10.438,-11.266C11.414,-10.742 12.18,-10.02 12.734,-9.094C13.285,-8.164 13.562,-7.117 13.562,-5.953C13.562,-4.785 13.285,-3.734 12.734,-2.797C12.18,-1.867 11.414,-1.141 10.438,-0.609C9.457,-0.086 8.363,0.172 7.156,0.172ZM7.156,-1.766C7.945,-1.766 8.66,-1.941 9.297,-2.297C9.93,-2.66 10.43,-3.16 10.797,-3.797C11.16,-4.441 11.344,-5.16 11.344,-5.953C11.344,-6.742 11.16,-7.457 10.797,-8.094C10.43,-8.738 9.93,-9.238 9.297,-9.594C8.66,-9.945 7.945,-10.125 7.156,-10.125C6.363,-10.125 5.648,-9.945 5.016,-9.594C4.379,-9.238 3.879,-8.738 3.516,-8.094C3.148,-7.457 2.969,-6.742 2.969,-5.953C2.969,-5.16 3.148,-4.441 3.516,-3.797C3.879,-3.16 4.379,-2.66 5.016,-2.297C5.648,-1.941 6.363,-1.766 7.156,-1.766Z" style="fill:rgb(177,166,255);fill-rule:nonzero;"/>
            </g>
        </g>
    </g>
    <g transform="matrix(1.333333,0,0,1.333333,-105.653645,-214.510416)">
        <path d="M134.527,178.848L148.516,178.016L134.5,177.223L139.902,171.168L133.859,176.539L133.062,162.582L132.262,176.535L126.223,171.168L131.617,177.223L117.637,178.016L131.59,178.844L126.223,184.871L132.258,179.473L133.062,193.461L133.863,179.469L139.902,184.871L134.527,178.848" style="fill:rgb(231,227,218);fill-rule:nonzero;"/>
    </g>
</svg>
