<svg xmlns="http://www.w3.org/2000/svg" data-name="Ebene 2" viewBox="0 0 283.434 65.32"><g data-name="Ebene 1"><g data-name="Einfarbig"><path d="M55.637 43.444c0 11.6 4.293 21.842 12.35 21.842 7.41 0 12.488-9.826 12.488-21.842 0-10.777-4.298-22.66-12.23-22.66-8.443 0-12.608 12.424-12.608 22.66Zm18.073 5.731c0 6.148-1.817 8.194-3.772 8.194-2.47 0-7.54-4.505-7.54-20.75 0-6.552 1.432-9.42 3.509-9.42 3.64 0 7.803 9.97 7.803 21.976Zm176.735-10.37-5.727 3.275c-.774-7.37-.382-15.833 2.998-15.833 1.945 0 4.025 3.272 4.025 9.145 0 1.908-.128 2.866-1.296 3.413ZM252 56.418c-4.284 0-5.977-6.826-6.624-10.243l11.698-6.685c1.302-.826 1.951-1.918 1.951-4.918-.262-8.054-3.637-13.654-8.708-13.654-7.544 0-12.484 10.514-12.484 22.389 0 14.062 5.333 21.432 11.05 21.98 6.238.544 9.75-5.597 9.75-11.738 0-4.78-3.119-4.233-3.119-1.777 0 2.187-1.041 4.646-3.514 4.646ZM85.408 33.322v-.667c0-2.434-.495-3.642-1.041-4.413a4.32 4.32 0 0 0-.4-.501l-.368-.407c-.222-.254-.39-.49-.466-.807-.093-.398-.012-.836.662-1.218l6.89-3.883c1.691-.954 2.915-.772 2.915 1.405v4.234c1.43-2.867 4.287-6.282 8.318-6.282 3.51 0 5.724 3.277 6.501 6.282 1.562-2.867 4.553-6.282 8.322-6.282 2.86 0 6.888 2.458 6.888 9.969v28.236c0 1.535.369 2.489.743 3.226.185.364.366.673.506.977.133.299.217.574.217.889 0 .21-.025.331-.064.403a.997.997 0 0 1-.627.141c-.182-.006-.397-.02-.656-.02h-8.407c-.285 0-.516.004-.698.014-.186.003-.31 0-.4-.02-.183-.17-.2-.308-.2-.518 0-.325.085-.61.206-.902.134-.301.308-.606.481-.967.351-.728.709-1.672.709-3.226V36.077c0-3.553-.778-6.827-3.379-6.827-2.338 0-3.506 3.274-3.506 6.827v22.914c0 1.532.365 2.486.74 3.224.183.363.365.672.5.976.138.299.223.574.223.889 0 .21-.025.331-.066.403a.972.972 0 0 1-.627.135c-.18-.004-.392-.013-.655-.013h-8.53c-.288 0-.516.003-.705.013-.18.003-.307 0-.396-.02-.186-.17-.203-.308-.203-.518 0-.325.087-.61.21-.902.134-.301.308-.606.48-.967.355-.728.704-1.672.704-3.226V36.077c0-3.553-.518-6.827-3.12-6.827-2.212 0-3.509 3.274-3.509 6.827v22.924c0 1.535.372 2.482.745 3.223.186.361.365.67.507.974.135.298.219.574.219.889 0 .21-.027.33-.063.406a1.08 1.08 0 0 1-.632.135c-.18-.01-.392-.023-.648-.023h-8.413c-.283 0-.514.013-.7.016-.186.007-.31.007-.4-.016-.182-.168-.2-.309-.2-.518 0-.325.085-.61.208-.905.133-.299.303-.607.48-.961.354-.731.708-1.659.708-3.216l-.003-25.683Zm43.72-29.296 6.184-3.434c1.947-1.092 3.012-.666 3.012 1.516v22.933c.908-2.182 3.768-4.233 5.98-4.233 7.671 0 10.792 11.468 10.792 22.115 0 13.518-5.463 22.255-11.57 22.255h-.103c-2.875 0-4.537-1.039-5.536-2.288-.502-.623-1.196-.715-2.02-.226-.951.56-1.793 1.082-2.524 1.462-.733.384-1.349.616-1.851.616-.901 0-1.493-.95-1.493-2.036l.013-51.178c0-2.433-.5-3.587-1.045-4.307a4.254 4.254 0 0 0-.404-.459l-.372-.372c-.221-.23-.387-.45-.456-.766-.123-.563.145-.906.653-1.201l.74-.397Zm12.05 24.13c2.604 0 5.594 6.009 5.594 17.61 0 6.14-1.167 12.557-3.774 12.557-3.64 0-5.197-6.01-5.197-16.243 0-10.648 1.169-13.925 3.377-13.925Zm39.891 36.449c.263 0 .481.013.666.023.196.006.34.01.624-.135.04-.075.066-.197.066-.406 0-.315-.085-.59-.219-.889-.138-.305-.322-.613-.506-.974-.368-.74-.756-1.695-.756-3.226V32.936c0-8.876-4.55-12.153-10.141-12.153-5.395 0-9.852 2.928-11.092 7.807-.38 1.305-.178 2.02.66 2.626l4.586 3.336c.871.633 1.872.303 1.764-.953-.34-4.085.225-8.72 3.08-8.72 2.828.035 3.092 3.714 3.092 9.012v2.593c-8.067 2.18-15.349 8.328-15.349 17.337 0 6.413 3.641 11.193 9.1 11.193 3.51 0 5.854-2.459 6.628-3.96.26 2.459.918 3.55 2.474 3.55h5.323Zm-10.914-6.145c-2.859.27-4.158-3.416-4.158-6.554 0-4.088 2.473-9.416 6.896-11.327v12.42c0 2.868-.659 5.193-2.738 5.461Zm27.78-28.769c-.464-1.932-1.28-3.444-2.901-3.444-2.99 0-3.508 6.689-3.508 9.42 0 8.187 1.817 20.61 7.666 20.61 2.604 0 3.517-2.866 3.517-5.325 0-2.183 3.244-2.865 3.244 1.912 0 6.282-3.244 12.829-9.75 12.422-6.11-.547-11.31-8.6-11.31-21.98 0-11.86 4.797-22.359 12.453-22.388 3.953.04 7.856 4.954 7.856 9.036 0 1.046-.084 1.72-.687 2.301l-4.338 4.203c-.804.777-1.8.403-1.779-1.027.025-1.445-.01-3.77-.463-5.74Zm12.422 27.37.007-45.509c0-2.432-.503-3.491-1.054-4.211a5.064 5.064 0 0 0-.405-.46l-.365-.37c-.223-.232-.389-.455-.464-.765-.12-.564.152-.91.657-1.205l.78-.416 6.173-3.54c1.956-1.095 2.999-.685 2.999 1.499V27.2c.78-2.454 3.638-6.282 8.059-6.282 4.028 0 7.016 3.69 7.016 12.29v23.856l-.025 1.911c0 1.534.372 2.479.747 3.21.182.354.365.656.5.954.138.295.22.57.22.885 0 .37-.146.499-.433.551-.15.03-.34.033-.559.026-.225-.006-.468-.016-.737-.016h-7.577c-.285 0-.54.01-.76.01a2.74 2.74 0 0 1-.559-.033c-.275-.056-.41-.184-.41-.538 0-.328.08-.606.207-.898.131-.295.312-.594.487-.944.355-.718.71-1.653.71-3.207V35.667c0-2.731-.78-6.558-3.383-6.558-2.338 0-3.503 3.827-3.503 6.558v21.285l-.031 2.023c0 1.534.368 2.479.746 3.21.181.354.365.656.503.954.13.295.218.57.218.885 0 .37-.15.499-.437.551-.153.03-.337.033-.557.026-.223-.006-.47.004-.737.004h-7.706c-.285 0-.54-.01-.764-.01a2.745 2.745 0 0 1-.556-.033c-.278-.056-.409-.184-.409-.538 0-.328.081-.606.21-.898.13-.295.308-.594.483-.944.353-.718.71-1.653.71-3.207v-1.914Zm53.765 1.354-.003-24.934c0-.265-.002-.824-.014-1.068-.04-2.21-.508-3.343-1.018-4.084a5.418 5.418 0 0 0-.397-.503l-.362-.41c-.219-.256-.384-.487-.453-.802-.126-.546.102-.92.625-1.216l6.866-3.956c1.668-.928 2.945-.773 2.945 1.389v5.464c2.209-4.917 5.46-7.512 8.838-7.512 1.428 0 2.6.548 2.21 2.187l-2.109 7.521-.143.504c-.245.773-.547 1.05-1.143 1.162-.216.04-.4-.023-.584-.15-.19-.13-.364-.329-.568-.562l-.313-.357a4.956 4.956 0 0 0-.352-.354 2.607 2.607 0 0 0-.895-.552 2.71 2.71 0 0 0-.78-.115c-1.301 0-4.037 2.32-4.037 13.925v15.02c0 1.53.344 2.484.687 3.222.174.364.345.675.472.974.126.298.21.58.21.892 0 .37-.141.488-.418.528a2.98 2.98 0 0 1-.546.01c-.222-.007-.46-.033-.732-.033h-7.658c-.288 0-.544.01-.771.013-.22 0-.405-.007-.555-.04-.271-.055-.407-.183-.407-.534 0-.325.08-.607.21-.898.13-.299.302-.594.481-.948.353-.718.714-1.65.714-3.207v-.576ZM46.01 28.563l.39-.795c1.861-3.742 4.984-6.985 8.59-6.985 1.427 0 2.6.548 2.208 2.187l-2.123 7.584-.125.449c-.247.775-.548 1.054-1.14 1.164-.219.042-.406-.02-.593-.148-.184-.136-.366-.334-.567-.564l-.31-.357a5.244 5.244 0 0 0-.35-.354 2.607 2.607 0 0 0-.906-.553 2.63 2.63 0 0 0-.776-.124c-1.819 0-4.159 3.685-4.159 13.925l-.001 14.33v.69c0 1.53.35 2.484.696 3.222.173.364.343.675.471.974.128.298.206.58.206.892 0 .37-.14.488-.415.528-.16.022-.347.02-.55.01-.218-.007-.462-.024-.732-.024h-22.66c-.773 0-1.232-.003-1.5-.078-.233-.066-.3-.177-.3-.436 0-.328.116-.64.287-.997.177-.36.397-.748.581-1.213.347-.872.565-2.007.133-3.705l-7.681-25.66-4.027 7.1V59.01c0 1.515.358 2.479.715 3.223.175.367.35.682.481.987.13.292.216.574.216.879 0 .357-.116.465-.36.511-.14.023-.318.023-.543.023-.225-.006-.489-.02-.8-.02h-8.59l-.78.01c-.223 0-.417-.006-.573-.033C.131 64.536 0 64.411 0 64.1c0-.325.087-.604.228-.902.144-.302.337-.606.528-.964.389-.731.791-1.679.791-3.23v-52.5c0-1.566-.382-2.5-.76-3.216C.6 2.934.412 2.633.272 2.333.14 2.039.05 1.749.05 1.418c0-.354.134-.482.41-.54a2.8 2.8 0 0 1 .555-.039l.77.009h8.597l.8-.002c.225.002.404.015.545.05.256.061.371.186.371.522 0 .317-.081.594-.212.89-.133.299-.31.602-.489.96-.359.729-.74 1.675-.74 3.214v22.22l11.03-20.154c1.124-2.023 1.476-4.163 1.042-4.95-.248-.452-.487-.813-.656-1.157-.162-.341-.253-.652-.222-1.015.022-.236.16-.38.456-.469.297-.088.725-.11 1.268-.11h8.06l.733-.001c.222.002.409.013.557.05.281.063.436.197.47.532.047.48-.109.882-.459 1.331-.262.34-.643.716-1.146 1.192-.693.656-1.355 1.555-2.022 2.638l-8.844 15.288 11.182 35.216c1.303 4.233 2.473 4.915 3.9 4.915.911 0 1.953-.682 1.953-2.862V33.344c0-.215-.005-.415-.008-.612 0-2.421-.489-3.626-1.021-4.403a6.363 6.363 0 0 0-.397-.503l-.362-.41c-.225-.256-.389-.487-.456-.802-.122-.546.103-.92.628-1.216l6.926-3.91c1.567-.801 2.736-.572 2.736 1.5v5.58l.398-.806-.393.801Z" data-name="Krombacher" style="fill:#22382d;fill-rule:evenodd"/></g></g></svg>