<?xml version="1.0" encoding="UTF-8"?>
<svg id="Ebene_1" xmlns="http://www.w3.org/2000/svg" version="1.1" viewBox="0 0 249.4 127.6">
  <!-- Generator: Adobe Illustrator 29.7.0, SVG Export Plug-In . SVG Version: 2.1.1 Build 138)  -->
  <defs>
    <style>
      .st0 {
        font-family: OpenSans-Bold, 'Open Sans';
        font-size: 9.8px;
        font-weight: 700;
      }

      .st0, .st1 {
        fill: #e50041;
      }
    </style>
  </defs>
  <g id="LBS_Immobilien">
    <path id="path4758" class="st1" d="M41,92.7v-5.5h3.2v11h-3.2v-5.5ZM46.7,92.7v-5.5h4.4l.7,2.6c.4,1.4.8,2.7.8,2.9,0,.2.3-.3.5-1.2.2-.8.5-2.1.7-2.8l.4-1.4h2.1c0,0,2.1-.1,2.1-.1v11h-2.9v-4c0,0-.1-4-.1-4l-.6,2.3c-.3,1.3-.8,3.1-1,4l-.4,1.6h-2l-.4-1.6c-.2-.9-.7-2.7-1.1-4l-.6-2.3v4s0,4,0,4h-2.5v-5.5ZM61.3,92.7v-5.5h4.3l.7,2.8c.4,1.6.8,2.8.8,2.8s.4-1.3.8-2.8l.7-2.8h4.4v11h-3v-3.8c0-2.1,0-3.8-.2-3.6,0,.1-.6,1.8-1.1,3.9l-.9,3.7h-1c0,0-1-.1-1-.1l-1-3.7c-.5-2.1-1-3.8-1.1-3.9s-.2,1.6-.2,3.8v3.9h-2.3v-5.5ZM78.1,97.8c-1.1-.6-1.4-.9-2.1-2.2-.5-1-.6-1.3-.6-2.8,0-2,.3-3,1.2-4,1.1-1.2,2.1-1.7,4-1.6,2.4,0,3.7.8,4.7,2.9.5,1.2.6,3.3.2,4.7-.3,1.1-1.5,2.5-2.7,3-1.2.5-3.5.5-4.6,0ZM81.4,95.4c.9-.9,1-3.9.2-5.1-.7-1.1-2-1-2.5.3-.4,1-.4,3.5,0,4.3.6,1.1,1.5,1.4,2.3.6h0ZM87.6,92.8v-5.5h3.3c3.6,0,4.1.1,4.9,1.2.9,1.2.6,3-.6,3.8l-.5.3.7.3c1.8.9,1.7,4-.3,5-.4.2-1.6.3-4,.4h-3.4c0,0,0-5.4,0-5.4ZM93.3,95.5c.4-.4.4-1.2-.1-1.5-.2-.1-.9-.2-1.5-.2h-1.1v2.2h1.2c.6-.2,1.3-.4,1.5-.5h0ZM93,91.1c.4-.4.4-.9,0-1.3-.1-.1-.7-.3-1.4-.3h-1.1v1.9h1c.7,0,1.2-.1,1.4-.3ZM99,92.7v-5.5h3.2v11h-3.2v-5.5ZM104.7,92.7v-5.5h3.4v8.2h4.2v2.7h-7.6v-5.5ZM114.2,92.7v-5.5h3.2v11h-3.2v-5.5ZM119.9,92.7v-5.5h8v2.3h-4.9v1.9h4v2.3h-4v1.9h4.9v2.5h-8v-5.5ZM130.3,92.7v-5.5h1.6c0,0,1.6.1,1.6.1l1.6,2.7c.9,1.5,1.7,2.8,1.8,2.9.1.1.2-1,.1-2.8v-2.9c0,0,1.2,0,1.2,0h1.3v11h-1.3s-1.3,0-1.3,0l-1.4-2.2c-.8-1.2-1.7-2.8-2-3.5l-.6-1.3v3.5c0,0,.2,3.5.2,3.5h-2.8v-5.5h0ZM119.4,81.6c-5.3-.7-9.5-3.1-11.9-6.7-.9-1.4-2.3-4.6-2.1-4.9,0,0,10.5-2,10.8-2s0,0,.6,1.2c.6,1.3,1.7,2.3,3.1,2.9.8.4,1.5.8,3.6.9,2.2,0,2.7-.4,3.5-.8,1.3-.9,1.6-2.5.3-3.7-.9-.8-1.3-.9-5.3-1.7-5.8-1.2-9.1-2.5-11.2-4.5-2.4-2.2-3.3-4.3-3.3-7.7,0-6,3.5-10.4,9.7-12,5.4-1.4,11.3-.9,15.5,1.3,2.4,1.2,4.6,3.5,5.7,5.7.4.9.7,1.6.6,1.7-.2.2-9.6,3-9.6,2.9,0,0-.3-.4-.5-.9-1.2-1.9-3.1-2.9-5.7-2.9s-2.9.4-3.5,1.1c-1.1,1.3-.4,3,1.5,3.6.5.2,2.6.7,4.6,1.1,6.2,1.3,8.8,2.3,11,4.4,2.2,2.1,3.2,4.2,3.4,7.5.2,4.3-1.4,7.8-4.9,10.2-2.3,1.7-4.9,2.6-8.3,3.2-1.7.3-6,.4-7.6.2h0ZM41,61.7v-19.4h11.8v14.7c0,0,.1,14.7.1,14.7h7.7c0,0,7.7.1,7.7.1v9.3h-27.2v-19.4ZM71,61.7v-19.4h10.8c11.7,0,12.9.1,15.2,1.1,2.2,1,4.1,3.2,5,5.8.6,1.8.6,4.8,0,6.5-.9,2.3-2.8,4.4-5,5.1-1.1.4-1,.1.3.5,2.4.7,4.1,2.4,5.2,4.7.7,1.6,1.1,1.9,1.1,4.5-.2,2.3-.3,2.7-.7,3.9-1.3,3.9-4.1,5.9-8.5,6.7-.7.1-6.1.2-12.4.2h-11.1s0-19.4,0-19.4ZM90.1,72.2c2-1.1,2.5-3.6,1.2-5.2-1-1.2-1.8-1.4-5.8-1.4h-3.5s0,3.6,0,3.6v3.6h3.7c3-.1,3.9-.2,4.4-.5h0ZM89.5,56.8c2.3-1.2,2.4-4.6.1-5.7-.7-.4-1.3-.5-4.3-.5h-3.4c0,0,0,3.3,0,3.3v3.4h3.3c3,0,3.4,0,4.3-.5h0ZM151.1,41.8c-20-13.9-36.3-20.3-55.4-21.9-21.5-1.8-42.6,2.4-62.6,12.3-6.4,3.2-12.6,7-17.6,10.6-2.8,2-2.8,2-.4-.4,11.1-11.3,29.1-21.1,47.3-25.7,9.7-2.4,18.1-3.5,28.1-3.5,6.4,0,9.5.2,15.3,1,16.9,2.4,34.5,9.2,47,18.2,1.6,1.1,2.6,1.7,2.7,1.6,3.6-2.6,9.2-6.1,13.6-8.4,10.5-5.5,19.9-8.7,30-10.3,3.6-.6,13.7-.8,18-.4,5.5.5,10.2,1.4,13.7,2.7,1.6.6,5.4,2.5,5.2,2.7,0,0-1.4-.2-3-.6-4.8-1.2-8-1.6-14-1.7-13.2-.3-23.4,2-35.4,8-8,4-17.7,10.2-25.4,16.3l-3,2.3-4.2-2.9Z"/>
  </g>
  <text class="st0" transform="translate(37.5 111.4)"><tspan x="0" y="0" xml:space="preserve"> LBS Gebietsleitung Christof Woltering</tspan></text>
</svg>